<?xml version="1.0" encoding="utf-8"?>
<!-- Generator: Adobe Illustrator 17.0.0, SVG Export Plug-In . SVG Version: 6.00 Build 0)  -->
<!DOCTYPE svg PUBLIC "-//W3C//DTD SVG 1.1//EN" "http://www.w3.org/Graphics/SVG/1.1/DTD/svg11.dtd">
<svg version="1.1" id="Слой_1" xmlns="http://www.w3.org/2000/svg" xmlns:xlink="http://www.w3.org/1999/xlink" x="0px" y="0px"
	 width="189px" height="27px" viewBox="0 0 189 27" enable-background="new 0 0 189 27" xml:space="preserve">
<g>
	<path fill="#009640" d="M13.14,26.291C5.883,26.291,0,20.403,0,13.14C0,5.875,5.883-0.014,13.14-0.014S26.279,5.875,26.279,13.14
		C26.279,20.403,20.397,26.291,13.14,26.291z"/>
	<circle fill="#FFFFFF" cx="9.438" cy="8.515" r="3.125"/>
	<path fill="#575655" d="M185.263,9.055c-0.333-2.807-4.309-3.821-6.108-1.813c-1.019,1.122-1.032,3.26-1.032,5.232v1.105
		c0,2.064,0.113,3.33,0.376,3.89h-0.003c0.151,0.561,0.379,1.079,0.723,1.458c1.749,1.953,6.098,1.347,6.059-2.018h3.717
		l-0.016,1.041c-0.258,4.286-3.828,5.975-7.418,5.807c-2.046-0.044-3.905-0.859-5.363-2.334c-1.042-1.053-1.595-2.27-1.855-3.954
		h0.008c-0.253-1.122-0.151-2.697-0.151-4.415v-0.833c0-4.122,0.393-5.787,1.999-7.41c1.457-1.476,3.29-2.211,5.337-2.255
		c3.59-0.167,7.147,1.488,7.405,5.774l-0.015,0.725H185.263z M168.472,21.472c-1.474,1.525-3.408,2.272-5.67,2.272
		c-2.307,0-4.217-0.824-5.704-2.343c-1.733-1.772-2.038-3.932-2.098-6.736h-3.22v8.976h-3.923V2.882h3.923v8.415h3.25
		c0.114-3.366,0.515-4.823,2.068-6.448c1.523-1.582,3.5-2.341,5.673-2.341c2.28,0,4.193,0.764,5.701,2.294
		c1.569,1.587,2.068,3.61,2.068,6.482c0.001,0.194,0,1.694,0,1.846C170.54,16.777,170.566,19.304,168.472,21.472z M166.353,12.385
		c0-2.709-0.167-4.208-0.966-5.111c-0.639-0.735-1.565-1.121-2.626-1.121c-1.062,0-2.008,0.386-2.645,1.121
		c-0.816,0.94-1.049,2.611-1.049,5.255v1.3c0,3.051,0.255,4.28,1.04,5.166c0.657,0.728,1.61,1.145,2.645,1.145
		c1.037,0,1.981-0.417,2.639-1.145c0.88-0.977,0.962-2.467,0.962-5.375V12.385z M138.328,6.248h-4.825l-0.235,8.812
		c-0.161,5.884-2.39,8.581-6.467,8.581h-1.925v-3.926h0.798c1.893,0,3.352-0.83,3.462-4.832l0.321-12.001h12.795v20.759h-3.924
		V6.248z M117.59,6.248h-7.287v17.393h-3.923V2.882h15.133v20.759h-3.923C117.59,23.641,117.59,6.248,117.59,6.248z M95.73,15.225
		h3.363v11.782H95.73V15.225z M89.86,17.632c0,3.666-2.48,6.009-6.435,6.009h-8.993V2.882h8.64c3.956,0,6.499,2.134,6.499,5.652
		c0,2.004-0.858,3.375-2.608,4.348c0.834,0.434,1.158,0.682,1.594,1.125C89.477,14.975,89.86,16.164,89.86,17.632z M82.75,6.248
		h-3.834v5.049h3.834c1.677,0,2.715-1.023,2.715-2.524C85.465,7.273,84.427,6.248,82.75,6.248z M83.009,14.665h-4.093v5.05h4.093
		c1.684,0,2.751-0.949,2.751-2.545C85.76,15.587,84.693,14.665,83.009,14.665z M66.024,23.641H61.54V6.248h-5.605V2.882h15.134
		v3.366h-5.045V23.641z M48.649,14.665h-7.287v8.976h-3.923V2.882h3.923v8.415h7.287V2.882h3.923v20.759h-3.923V14.665z"/>
</g>
</svg>
